<svg xmlns="http://www.w3.org/2000/svg" version="1.1" xmlns:xlink="http://www.w3.org/1999/xlink" xmlns:svgjs="http://svgjs.dev/svgjs" width="128" height="128" viewBox="0 0 128 128"><g transform="matrix(0.8046875,0,0,0.8046875,12.612792253521128,12.612792253521128)"><svg viewBox="0 0 142 142" data-background-color="#8c1010" preserveAspectRatio="xMidYMid meet" height="128" width="128" xmlns="http://www.w3.org/2000/svg" xmlns:xlink="http://www.w3.org/1999/xlink"><g id="tight-bounds" transform="matrix(1,0,0,1,-0.15550000000000352,-0.15550000000000352)"><svg viewBox="0 0 142.31066447748242 142.31066447748242" height="142.31066447748242" width="142.31066447748242"><g><svg></svg></g><g><svg viewBox="0 0 142.31066447748242 142.31066447748242" height="142.31066447748242" width="142.31066447748242"><g><path d="M0 71.155c0-39.298 31.857-71.155 71.155-71.155 39.298 0 71.155 31.857 71.156 71.155 0 39.298-31.857 71.155-71.156 71.156-39.298 0-71.155-31.857-71.155-71.156zM71.155 134.886c35.197 0 63.731-28.533 63.731-63.731 0-35.197-28.533-63.731-63.731-63.73-35.197 0-63.731 28.533-63.73 63.73 0 35.197 28.533 63.731 63.73 63.731z" data-fill-palette-color="tertiary" fill="#000000" stroke="transparent"></path><ellipse rx="68.30911894919156" ry="68.30911894919156" cx="71.15533223874121" cy="71.15533223874121" fill="#000000" stroke="transparent" stroke-width="0" fill-opacity="1" data-fill-palette-color="tertiary"></ellipse></g><g transform="matrix(1,0,0,1,41.655441458559196,29.989108276746492)"><svg viewBox="0 0 58.999781560364035 82.33244792398943" height="82.33244792398943" width="58.999781560364035"><g><svg viewBox="0 0 58.999781560364035 82.33244792398943" height="82.33244792398943" width="58.999781560364035"><g><svg viewBox="0 0 58.999781560364035 82.33244792398943" height="82.33244792398943" width="58.999781560364035"><g id="textblocktransform"><svg viewBox="0 0 58.999781560364035 82.33244792398943" height="82.33244792398943" width="58.999781560364035" id="textblock"><g><svg viewBox="0 0 58.999781560364035 82.33244792398943" height="82.33244792398943" width="58.999781560364035"><g transform="matrix(1,0,0,1,0,0)"><svg width="58.999781560364035" viewBox="0.65 -34.2 25.511363560488 35.6" height="82.33244792398943" data-palette-color="#8c1010"><path d="M10.9-1.15L10.9-1.15Q10.85-0.9 10.63-0.48 10.4-0.05 10.1-0.05L10.1-0.05Q9.75-0.05 9.5-0.33 9.25-0.6 9.25-0.85L9.25-0.85Q9.45-1.25 9.45-1.35L9.45-1.35Q9.6-2 10.1-2L10.1-2Q10.4-2 10.65-1.75L10.65-1.75Q10.7-1.55 10.9-1.15ZM24.6-2.1L24.6-2.1 24.75-2.3Q25-2.4 25.35-2.4L25.35-2.4Q25.85-2.4 26.03-2.08 26.2-1.75 26.15-1.25L26.15-1.25Q25.65-0.6 25.05-0.45L25.05-0.45 24.95-0.45Q24.65-0.45 24.53-0.6 24.4-0.75 24.25-1L24.25-1Q24.25-1.35 24.35-1.55L24.35-1.55Q24.45-1.65 24.6-2.1ZM1.2-18.85L1.2-18.85Q1.2-19.15 1.05-19.2L1.05-19.2 0.85-19.5Q0.95-19.85 1.15-20.03 1.35-20.2 1.55-20.2L1.55-20.2Q1.8-20.2 1.95-20L1.95-20Q2.1-19.75 2.02-19.48 1.95-19.2 1.85-18.95L1.85-18.95Q1.6-18.9 1.45-18.88 1.3-18.85 1.2-18.85ZM16.2-13.4L16.2-13.4Q16.25-13.4 16.28-13.43 16.3-13.45 16.4-13.45L16.4-13.45Q16.6-13.45 16.65-13.3L16.65-13.3Q16.85-13.2 17.15-13.2L17.15-13.2Q17.4-12.95 17.63-12.75 17.85-12.55 17.95-12.15L17.95-12.15Q17.95-11.75 18-11.55L18-11.55Q18-11.4 18-11.23 18-11.05 17.9-10.9L17.9-10.9Q17.8-10.45 17.75-10.33 17.7-10.2 17.6-10.1L17.6-10.1Q17.4-10 17.15-10L17.15-10Q16.85-10.1 16.85-10.35L16.85-10.35Q16.75-10.6 16.55-10.7L16.55-10.7Q16.55-11.1 16.3-11.25L16.3-11.25Q15.9-11.95 15.88-12.55 15.85-13.15 16.2-13.4ZM24.55-3.75L24.55-3.75Q24.6-3.95 24.73-4.28 24.85-4.6 25.15-4.6L25.15-4.6Q25.25-4.6 25.3-4.55L25.3-4.55Q25.6-4.25 25.5-3.85L25.5-3.85Q25.4-3.4 25.1-3.4L25.1-3.4Q24.95-3.4 24.9-3.45L24.9-3.45Q24.6-3.55 24.55-3.75ZM1-21.35L1-21.35Q1.1-21.6 0.95-21.73 0.8-21.85 0.7-21.95L0.7-21.95Q0.75-22.75 1.55-23.25L1.55-23.25Q1.95-23 2.27-22.75 2.6-22.5 2.7-22L2.7-22Q2.65-21.15 1.85-21.05L1.85-21.05Q1.7-21.05 1.4-21.15L1.4-21.15Q1.3-21.25 1.2-21.28 1.1-21.3 1-21.35ZM8.05-15.25L7.95-15.2Q7.9-15.45 7.75-15.55 7.6-15.65 7.35-15.75L7.35-15.75Q7.05-15.65 6.98-15.5 6.9-15.35 6.8-15.05L6.8-15.05Q6.7-14.8 6.68-14.63 6.65-14.45 6.65-14.15L6.65-14.15 6.5-13.05Q6.35-12.5 6.65-12.05L6.65-12.05Q6.6-11.75 6.58-11.43 6.55-11.1 6.6-10.75L6.6-10.75 6.6-9.5Q6.55-9.35 6.65-8.95L6.65-8.95Q6.65-7.95 6.75-7.05L6.75-7.05Q6.8-6.75 6.78-6.43 6.75-6.1 6.7-5.8L6.7-5.8Q6.6-5.3 6.8-5.1L6.8-5.1Q7.05-4.9 7.1-4.65L7.1-4.65Q7.35-4.5 7.55-4.38 7.75-4.25 7.9-4L7.9-4Q8-3.6 8.1-3.4L8.1-3.4Q8.25-3.1 8.1-2.75L8.1-2.75Q8.35-2.35 8.25-2.15 8.15-1.95 8.05-1.8L8.05-1.8Q7.6-1.35 7.6-1L7.6-1Q7.35-0.45 6.85-0.4L6.85-0.4Q6.55-0.3 6.3-0.2 6.05-0.1 5.8 0.1L5.8 0.1Q5.55 0.15 5.43 0.15 5.3 0.15 5.2 0.15L5.2 0.15Q5 0.1 4.7 0.1L4.7 0.1Q4.45 0.1 4.35 0.15L4.35 0.15Q4.15 0.2 4.03 0.23 3.9 0.25 3.75 0.25L3.75 0.25Q3.3 0.05 3.18 0.05 3.05 0.05 3 0.05L3 0.05Q2.95 0.05 2.75-0.05L2.75-0.05Q2.55-0.15 2.35-0.15L2.35-0.15Q1.9-0.15 1.6-0.7L1.6-0.7Q1.35-1.05 1.4-1.15L1.4-1.15Q1.4-1.25 1.35-1.4 1.3-1.55 1.25-1.65L1.25-1.65Q1.15-1.95 1.13-2.08 1.1-2.2 1.05-2.3L1.05-2.3Q1.05-2.55 1.03-2.7 1-2.85 0.95-2.95L0.95-2.95Q0.75-3.55 0.65-3.85L0.65-3.85Q0.9-5.3 1.2-6.28 1.5-7.25 1.9-7.95L1.9-7.95Q2.1-8.65 2.15-8.88 2.2-9.1 2.15-9.2L2.15-9.2Q2.15-9.3 2.1-9.63 2.05-9.95 2.15-10.1L2.15-10.1 2.15-10.65Q2.15-10.8 2.18-10.98 2.2-11.15 2.35-11.35L2.35-11.35Q2.5-11.75 2.5-12.05L2.5-12.05Q2.65-12.55 2.68-12.88 2.7-13.2 2.75-13.45L2.75-13.45Q2.8-13.7 2.85-14 2.9-14.3 2.95-14.6L2.95-14.6Q3-14.85 3-15.03 3-15.2 3-15.4L3-15.4Q2.95-15.75 3.1-16L3.1-16 3.1-16.65Q3.1-16.95 3.08-17.07 3.05-17.2 3.1-17.35L3.1-17.35Q3.1-17.55 3-17.75L3-17.75Q3.1-17.95 3.13-18.15 3.15-18.35 3.2-18.55L3.2-18.55Q3.25-18.7 3.25-18.85 3.25-19 3.3-19.15L3.3-19.15Q3.35-19.4 3.35-19.6 3.35-19.8 3.4-20L3.4-20Q3.4-20.35 3.55-20.55L3.55-20.55Q3.55-21.1 3.7-21.1L3.7-21.1Q3.55-21.5 3.55-21.85L3.55-21.85Q3.5-22 3.43-22.18 3.35-22.35 3.25-22.55L3.25-22.55Q3.25-22.8 3.23-22.98 3.2-23.15 3.1-23.35L3.1-23.35Q2.95-23.7 3-24.2L3-24.2Q2.95-24.55 2.93-24.88 2.9-25.2 2.95-25.45L2.95-25.45Q2.95-26.05 2.65-26.35L2.65-26.35Q2.55-26.5 2.53-26.63 2.5-26.75 2.45-26.85L2.45-26.85Q2.4-27.1 2.2-27.25L2.2-27.25Q2.15-27.35 2.15-27.45 2.15-27.55 2.1-27.65L2.1-27.65Q1.9-28.1 1.9-28.7L1.9-28.7Q1.9-28.9 2.1-29.05L2.1-29.05Q2.05-29.3 2-29.63 1.95-29.95 2.2-30.05L2.2-30.05Q2.1-30.3 2.23-30.53 2.35-30.75 2.45-30.85L2.45-30.85Q2.45-31 2.7-31.25L2.7-31.25Q3.1-31.45 3.4-32L3.4-32Q3.55-32.25 3.88-32.27 4.2-32.3 4.45-32.3L4.45-32.3Q4.65-32.3 4.95-32.2L4.95-32.2Q5.2-32.25 5.38-32.27 5.55-32.3 5.75-32.3L5.75-32.3Q6.2-32.3 6.4-32.05L6.4-32.05Q6.75-32.05 6.95-31.9L6.95-31.9Q7.1-31.8 7.5-31.6L7.5-31.6Q7.65-31.25 8.05-31L8.05-31Q8.4-30.7 8.53-30.33 8.65-29.95 8.7-29.7L8.7-29.7Q8.75-29.6 8.75-29.45 8.75-29.3 8.8-29.15L8.8-29.15Q8.85-28.85 8.9-28.55 8.95-28.25 9-28L9-28Q9.1-27.75 9.15-27.45 9.2-27.15 9.2-26.8L9.2-26.8Q9.1-26.1 9.22-25.73 9.35-25.35 9.6-24.95L9.6-24.95Q9.65-23.5 10.4-22.25L10.4-22.25Q10.45-22.1 10.5-21.85 10.55-21.6 10.6-21.35L10.6-21.35Q10.7-20.9 10.85-20.7L10.85-20.7Q10.95-20.3 10.95-20.1L10.95-20.1Q11.1-19.75 11.2-19.5 11.3-19.25 11.4-19.1L11.4-19.1Q11.6-18.6 11.65-18.4L11.65-18.4Q12.3-17.75 12.55-16.65L12.55-16.65Q12.65-16.5 12.75-16.05L12.75-16.05Q12.75-15.7 12.9-15.4L12.9-15.4Q13.2-14.9 13.2-14.55L13.2-14.55Q13.15-14.2 13.35-13.95L13.35-13.95Q13.55-13.75 13.6-13.65L13.6-13.65Q13.7-13.45 13.83-13.25 13.95-13.05 14.15-12.9L14.15-12.9Q14.3-12.8 14.4-12.45L14.4-12.45Q14.8-12.15 14.95-11.75L14.95-11.75Q15.05-11.55 15.18-11.38 15.3-11.2 15.45-11.1L15.45-11.1Q15.55-10.8 15.68-10.55 15.8-10.3 16-10.05L16-10.05Q16.15-9.85 16.28-9.6 16.4-9.35 16.55-9.05L16.55-9.05Q16.65-8.95 16.75-8.8 16.85-8.65 16.95-8.55L16.95-8.55Q17.25-8.2 17.35-8.1L17.35-8.1Q17.8-7.85 18-7.55L18-7.55Q18.1-7.4 18.23-7.23 18.35-7.05 18.55-6.9L18.55-6.9Q18.65-7 18.78-7.15 18.9-7.3 19-7.4L19-7.4Q19.1-7.5 19.2-7.65 19.3-7.8 19.4-7.95L19.4-7.95Q19.35-8.25 19.4-8.6L19.4-8.6 19.4-9.35Q19.2-9.8 19.25-10.05L19.25-10.05Q19.3-10.35 19.15-10.6L19.15-10.6 19.15-11.45Q18.9-11.8 18.95-12.05L18.95-12.05Q19-12.25 19-12.43 19-12.6 19-12.75L19-12.75Q19.1-13.05 19.05-13.2L19.05-13.2Q19-13.4 19.15-13.65L19.15-13.65 19.15-14.3Q19.15-14.85 19.25-15.05L19.25-15.05Q19.15-15.45 19.23-15.95 19.3-16.45 19.4-16.85L19.4-16.85Q19.15-17.25 19.15-17.68 19.15-18.1 19.15-18.55L19.15-18.55Q19.1-19.05 19.03-19.45 18.95-19.85 18.7-20.25L18.7-20.25Q18.85-20.45 18.85-20.95L18.85-20.95Q18.75-21.25 18.9-21.7L18.9-21.7 19.15-22.8Q19.15-23.05 19.2-23.28 19.25-23.5 19.35-23.75L19.35-23.75Q19.3-24 19.35-24.2L19.35-24.2Q19.4-24.45 19.43-24.75 19.45-25.05 19.35-25.45L19.35-25.45Q19.2-25.9 19.35-26.25L19.35-26.25Q19.3-26.45 19.28-26.68 19.25-26.9 19.3-27.2L19.3-27.2Q19.35-27.8 19.3-28.15L19.3-28.15Q19.25-28.75 19.3-29.05L19.3-29.05Q19.35-29.25 19.35-29.6L19.35-29.6 19.25-30.05Q19.25-30.2 19.25-30.35 19.25-30.5 19.3-30.75L19.3-30.75Q19.3-31.1 19.15-31.3L19.15-31.3Q19.35-31.75 19.3-32.4L19.3-32.4Q19.2-32.95 19.55-33.45L19.55-33.45Q20.2-34.05 20.55-34.1L20.55-34.1Q20.8-34.15 20.95-34.15 21.1-34.15 21.15-34.2L21.15-34.2Q21.5-34.15 21.65-34.15 21.8-34.15 21.9-34.1L21.9-34.1Q22-34 22.13-33.98 22.25-33.95 22.35-33.9L22.35-33.9 22.7-33.75Q22.8-33.7 22.88-33.68 22.95-33.65 23.05-33.6L23.05-33.6Q23.2-33.45 23.35-33.3 23.5-33.15 23.6-32.95L23.6-32.95Q23.8-32.5 24.25-32.35L24.25-32.35Q24.4-31.95 24.48-31.6 24.55-31.25 24.6-31.05L24.6-31.05Q24.6-30.8 24.63-30.6 24.65-30.4 24.7-30.15L24.7-30.15Q24.6-29.95 24.6-29.8L24.6-29.8Q24.6-29.6 24.4-29.5L24.4-29.5Q24.5-29.25 24.35-29.05L24.35-29.05Q24.2-28.8 24.35-28.6L24.35-28.6Q24.25-28.2 24.13-27.73 24-27.25 23.9-26.7L23.9-26.7 23.45-24.6Q23.3-24.45 23.2-24.15L23.2-24.15 23.05-23.65Q23-23.3 23.03-22.98 23.05-22.65 23.1-22.35L23.1-22.35Q23.1-22.05 23.1-21.73 23.1-21.4 23.05-21.1L23.05-21.1Q22.9-20.85 22.93-20.63 22.95-20.4 23-20L23-20Q23.05-19.85 23.05-19.55L23.05-19.55Q23.05-18.95 23.25-18.5L23.25-18.5Q23.35-18.1 23.35-17.85L23.35-17.85Q23.7-17.35 23.45-16.9L23.45-16.9Q23.25-16.4 23.18-15.83 23.1-15.25 23.25-14.6L23.25-14.6Q23.4-13.95 23.4-13.4 23.4-12.85 23.3-12.55L23.3-12.55Q23-11.9 23.1-11.35L23.1-11.35Q23.1-11.2 23.1-11.03 23.1-10.85 23.15-10.7L23.15-10.7 23.3-10.1Q23.35-9.85 23.3-9.55L23.3-9.55Q23.5-8.55 23.35-7.45L23.35-7.45Q23.15-6.35 23.05-5.5L23.05-5.5Q23.05-5 23-4.95L23-4.95Q22.8-4 23-3.45L23-3.45Q23.15-2.75 22.95-2.2L22.95-2.2Q22.8-1.7 22.73-1.53 22.65-1.35 22.6-1.25L22.6-1.25Q22.55-1 22.3-0.85L22.3-0.85Q22.2-0.65 22.1-0.5 22-0.35 21.9-0.25L21.9-0.25Q21.8-0.15 21.73 0.03 21.65 0.2 21.55 0.35L21.55 0.35Q21 0.5 20.7 0.85L20.7 0.85Q20.45 1 19.98 1.2 19.5 1.4 19.1 1.4L19.1 1.4Q18.8 1.4 18.55 1.25L18.55 1.25Q18.45 1.15 18.38 1.1 18.3 1.05 18.2 1L18.2 1Q17.8 0.6 17.65 0.48 17.5 0.35 17.4 0.2L17.4 0.2Q17.2 0.1 17.1-0.05 17-0.2 16.9-0.4L16.9-0.4Q16.8-0.55 16.7-0.68 16.6-0.8 16.5-1L16.5-1Q16.4-1.4 16.25-1.5L16.25-1.5Q16.05-1.55 16.05-1.85L16.05-1.85Q15.8-2.35 15.65-2.55 15.5-2.75 15.35-3L15.35-3Q15.2-3.25 15.03-3.48 14.85-3.7 14.95-4.1L14.95-4.1Q14.75-4.7 14.55-4.7L14.55-4.7Q14.25-5 14.15-5.55L14.15-5.55Q14.05-5.8 13.98-5.95 13.9-6.1 13.85-6.2L13.85-6.2Q13.75-6.3 13.7-6.4 13.65-6.5 13.55-6.6L13.55-6.6Q13.45-7.2 13.2-7.4L13.2-7.4Q13.05-7.5 12.93-7.68 12.8-7.85 12.7-8L12.7-8Q12.3-8.3 12.2-8.4 12.1-8.5 12.05-8.6L12.05-8.6Q11.95-9 11.8-9.1L11.8-9.1Q11.55-9.5 11.38-9.75 11.2-10 11.1-10.15L11.1-10.15Q10.8-10.45 10.65-11L10.65-11Q10.4-11.25 10.2-11.65L10.2-11.65Q9.95-11.75 9.88-11.93 9.8-12.1 9.75-12.3L9.75-12.3Q9.6-12.4 9.5-12.53 9.4-12.65 9.3-12.75L9.3-12.75Q9.4-13.15 9.2-13.25L9.2-13.25Q9-13.4 9.05-13.75L9.05-13.75Q8.8-13.9 8.7-14.35L8.7-14.35Q8.65-14.75 8.35-15.03 8.05-15.3 8.05-15.25L8.05-15.25ZM17.95-15.55L17.95-15.55Q17.85-14.8 17.5-14.55L17.5-14.55Q16.9-14.55 16.6-15L16.6-15Q16.6-15.4 16.8-15.55L16.8-15.55Q16.85-15.65 16.9-15.75 16.95-15.85 17.05-15.95L17.05-15.95Q17.15-16 17.3-16L17.3-16Q17.55-16 17.68-15.83 17.8-15.65 17.95-15.55Z" opacity="1" transform="matrix(1,0,0,1,0,0)" fill="#ffffff" class="wordmark-text-0" data-fill-palette-color="quaternary" id="text-0"></path></svg></g></svg></g></svg></g></svg></g><g></g></svg></g></svg></g></svg></g><defs></defs></svg><rect width="142.31066447748242" height="142.31066447748242" fill="none" stroke="none" visibility="hidden"></rect></g></svg></g></svg>